Coordinates
version=1
nRows=13
nColumns=36
inDegrees=yes

Units are S.I. units (second, meters, Newtons, ...)
If the header above contains a line with 'inDegrees', this indicates whether rotational values are in degrees (yes) or radians (no).

endheader
time	pelvis_tilt	pelvis_list	pelvis_rotation	pelvis_tx	pelvis_ty	pelvis_tz	hip_flexion_r	hip_adduction_r	hip_rotation_r	knee_angle_r	knee_angle_r_beta	ankle_angle_r	subtalar_angle_r	mtp_angle_r	hip_flexion_l	hip_adduction_l	hip_rotation_l	knee_angle_l	knee_angle_l_beta	ankle_angle_l	subtalar_angle_l	mtp_angle_l	lumbar_extension	lumbar_bending	lumbar_rotation	arm_flex_r	arm_add_r	arm_rot_r	elbow_flex_r	pro_sup_r	arm_flex_l	arm_add_l	arm_rot_l	elbow_flex_l	pro_sup_l
      3.10000000	    -12.03021883	     -2.66659311	      8.21849911	      1.46792749	      1.23077995	     -0.27652006	      4.38333448	      0.52013634	     -5.47398352	      0.62269242	      0.01086803	    -28.54362146	    -19.20009127	     -7.49999987	      5.00067425	     -6.52068511	     -3.66540843	      3.49688184	      0.06103210	    -25.68760900	     -1.00781524	     -7.49999987	     11.84031054	     -0.59982644	     -0.93799240	     -7.62849467	    -14.39469113	      8.38028633	      9.75155670	     71.59471392	    -10.84864559	    -10.93539793	      3.10821337	     12.74609712	     77.00274853
      3.11666670	    -11.95081842	     -2.72319640	      8.15715436	      1.46745369	      1.21428266	     -0.27742856	      5.25393297	      0.41193619	     -5.61500666	      0.69625651	      0.01215197	    -27.54918119	    -18.81260147	     -7.49999987	      5.37359949	     -6.81069498	     -4.16828125	      3.38239368	      0.05903391	    -25.70814460	     -1.09526902	     -7.49999987	     11.17610105	     -0.51697046	     -0.82489634	     -5.18527761	    -14.62486635	     12.11843408	     10.12696878	     76.41736050	     -9.15680675	    -10.64863787	      7.83617370	     12.62077667	     80.68817677
      3.13333330	    -11.94780850	     -2.78238183	      7.95664551	      1.46724135	      1.19621500	     -0.27698008	      6.36388274	      0.27318620	     -5.26605692	      0.84877435	      0.01481391	    -27.20612375	    -19.58489879	     -7.49999987	      5.76106426	     -7.14193433	     -4.54182235	      3.25763938	      0.05685653	    -25.79843027	     -1.63019175	     -7.49999987	     10.47102339	     -0.41341422	     -0.72174697	     -2.63518251	    -15.16373114	     13.30291832	     12.10912994	     78.54044171	     -8.28176678	    -10.45735780	      9.55648729	     13.18899516	     81.26533394
      3.15000000	    -11.81952223	     -2.80586410	      7.82223602	      1.46285287	      1.18278939	     -0.27496566	      7.54443840	      0.00543899	     -5.09188306	      1.05442994	      0.01840327	    -26.02703375	    -19.37691602	     -7.49999987	      6.32762504	     -7.51272310	     -4.65813009	      3.35756190	      0.05860051	    -25.11969567	     -1.90367852	     -7.49999987	      9.13959047	     -0.26407071	     -0.64442435	      0.16387062	    -14.91676893	      6.91426477	     13.40375103	     88.62539228	     -6.70214925	    -10.10730336	      5.54172912	     13.95687639	     88.22871011
      3.16666670	    -11.55357328	     -2.90916613	      7.94034304	      1.46196961	      1.16195397	     -0.27557805	      8.45639504	     -0.20921885	     -4.88057799	      1.36960586	      0.02390413	    -24.67216788	    -19.21064447	     -7.49999987	      6.78715222	     -7.94869957	     -4.63575871	      3.38369783	      0.05905667	    -23.84744896	     -2.46209051	     -7.49999987	      7.45482715	     -0.00430202	     -0.27197016	      3.19736778	    -15.27027129	      6.44252473	     15.29593675	     84.34347868	     -4.85194919	    -10.05122321	      5.54134307	     14.83187057	     84.22962453
      3.18333330	    -11.49525606	     -2.98721313	      8.06947537	      1.46177359	      1.14238557	     -0.27625881	      9.38884984	     -0.42436273	     -4.62239318	      1.56914327	      0.02738672	    -23.36858660	    -18.83592908	     -7.49999987	      7.77263513	     -8.30223649	     -4.19061718	      3.86669913	      0.06748663	    -22.08579717	     -3.23471612	     -7.49999987	      6.25299073	      0.18545043	     -0.16030656	      6.15098762	    -15.13575717	      1.91196926	     16.45559246	     91.55642134	     -2.93782460	     -9.90655999	      2.10742405	     16.16334805	     93.22258350
      3.20000000	    -11.53782140	     -3.16702391	      8.23817933	      1.46090733	      1.10961193	     -0.27165103	     10.45642482	     -0.39256969	     -4.26904578	      1.97750188	      0.03451392	    -22.16717437	    -18.80863014	     -7.49999987	      9.23835042	     -8.78797296	     -2.90317293	      4.72300992	      0.08243207	    -20.41038032	     -4.49908091	     -7.49999987	      4.86712953	      0.49021235	     -0.23247732	      8.91059490	    -15.40007286	      1.40197043	     18.90969233	     86.97522288	     -0.38483990	    -10.05859816	      2.12205845	     17.91165351	     88.89602357
      3.21666670	    -11.86546695	     -3.49148753	      8.47716361	      1.46136348	      1.09454705	     -0.27267509	     12.03036626	     -0.42685895	     -4.01690961	      2.81495108	      0.04913016	    -20.81609690	    -18.43496643	     -7.49999987	     11.02713115	     -9.32345965	     -2.12705518	      5.27670947	      0.09209595	    -18.23692969	     -4.43338690	     -7.49999987	      3.97160020	      0.94360244	     -0.33000262	     11.57897843	    -15.82791958	      1.25707781	     20.67069994	     86.53785179	      2.10391710	    -10.40300195	      2.27957485	     19.57382585	     88.69896661
      3.23333330	    -12.10984364	     -3.70974280	      8.78493831	      1.45603555	      1.05757279	     -0.27628178	     14.18302102	     -0.68466183	     -4.18543339	      4.84762793	      0.08460707	    -20.15043429	    -18.55552294	     -7.49999987	     13.04352204	     -9.59294262	     -0.97836012	      6.63208282	      0.11575168	    -16.65341664	     -5.01698976	     -7.49999987	      2.73002774	      1.48695634	     -0.37567098	     15.38964920	    -16.14563684	      1.12857712	     21.95583908	     84.90667397	      5.02206787	    -11.05169300	      3.47068831	     21.46274914	     91.12310806
      3.25000000	    -13.17740663	     -3.77209487	      8.84934843	      1.44680277	      1.01803578	     -0.27117266	     17.84382508	     -1.16456947	     -3.68583862	      7.86226327	      0.13722238	    -19.33117447	    -18.43160951	     -7.49999987	     16.49105192	     -9.62908852	     -0.12927891	      9.03175253	      0.15763382	    -14.48602712	     -5.52670858	     -7.49999987	      1.59861413	      1.64552308	     -0.26585871	     20.12329358	    -16.45271691	     -1.17956253	     25.05024764	     83.13908101	      8.95526738	    -11.19101863	     -1.18069710	     25.61753973	     98.52380960
      3.26666670	    -14.81748700	     -3.86137570	      8.61800957	      1.43312416	      0.97852806	     -0.26350134	     23.59135351	     -1.74878887	     -3.49935629	     13.23199952	      0.23094196	    -18.00409236	    -19.07612908	     -7.49999987	     21.39666601	     -9.65076220	      0.71674074	     13.21676351	      0.23067604	    -12.39771007	     -6.31626504	     -7.49999987	      0.74683662	      1.77362375	      0.26556715	     25.18786750	    -16.96074566	     -1.17026274	     28.15988090	     81.02026946	     13.20105525	    -12.03811867	     -0.90643474	     30.07766702	     95.69350561
      3.28333330	    -16.62638766	     -3.78430693	      8.37645548	      1.42944851	      0.93910130	     -0.26178373	     30.06912206	     -2.66901301	     -3.59758642	     20.16949269	      0.35202406	    -14.07928076	    -18.72381694	     -7.49999987	     27.37776525	     -9.57506420	      1.18271001	     19.10951272	      0.33352392	     -7.60708021	     -6.60137010	     -7.49999987	      0.13920901	      1.58241683	      0.39172334	     31.10909315	    -17.69018835	      1.86623064	     31.33583110	     77.43487579	     17.73788411	    -14.08001053	      0.79365757	     35.35513194	     92.59272285
      3.30000000	    -18.14830831	     -3.67625415	      8.23712234	      1.42887541	      0.89939545	     -0.25704044	     36.09650500	     -3.56840797	     -3.65242724	     27.82540843	      0.48564499	     -7.55342140	    -18.15421754	     -7.49999987	     33.12518422	     -9.46760269	      1.80524151	     25.77604152	      0.44987679	     -0.83067788	     -7.03372740	     -7.49999987	     -0.50736101	      1.28611491	      0.48377088	     36.86007993	    -18.30929564	      5.30888161	     35.42819969	     74.18480279	     22.53621526	    -16.91818114	      2.99415518	     42.48725828	     88.20718383
